<svg width="12" height="15" viewBox="0 0 12 15" fill="none" xmlns="http://www.w3.org/2000/svg">
<path d="M1.66797 14.6666C1.39019 14.6666 1.15408 14.5694 0.959635 14.375C0.765191 14.1805 0.667969 13.9444 0.667969 13.6666V6.43329C0.667969 6.15551 0.765191 5.9194 0.959635 5.72496C1.15408 5.53051 1.39019 5.43329 1.66797 5.43329H2.83464V3.83329C2.83464 2.95551 3.14297 2.20829 3.75964 1.59163C4.3763 0.974959 5.12352 0.666626 6.0013 0.666626C6.87908 0.666626 7.6263 0.974959 8.24297 1.59163C8.85964 2.20829 9.16797 2.95551 9.16797 3.83329V5.43329H10.3346C10.6124 5.43329 10.8485 5.53051 11.043 5.72496C11.2374 5.9194 11.3346 6.15551 11.3346 6.43329V13.6666C11.3346 13.9444 11.2374 14.1805 11.043 14.375C10.8485 14.5694 10.6124 14.6666 10.3346 14.6666H1.66797ZM1.66797 13.6666H10.3346V6.43329H1.66797V13.6666ZM6.0013 11.3333C6.35686 11.3333 6.65964 11.2111 6.90964 10.9666C7.15964 10.7222 7.28464 10.4277 7.28464 10.0833C7.28464 9.74996 7.15964 9.44718 6.90964 9.17496C6.65964 8.90274 6.35686 8.76663 6.0013 8.76663C5.64575 8.76663 5.34297 8.90274 5.09297 9.17496C4.84297 9.44718 4.71797 9.74996 4.71797 10.0833C4.71797 10.4277 4.84297 10.7222 5.09297 10.9666C5.34297 11.2111 5.64575 11.3333 6.0013 11.3333ZM3.83464 5.43329H8.16797V3.83329C8.16797 3.23329 7.95686 2.72218 7.53464 2.29996C7.11241 1.87774 6.6013 1.66663 6.0013 1.66663C5.4013 1.66663 4.89019 1.87774 4.46797 2.29996C4.04575 2.72218 3.83464 3.23329 3.83464 3.83329V5.43329ZM1.66797 13.6666V6.43329V13.6666Z" fill="black"/>
</svg>
