<svg width="14" height="14" viewBox="0 0 14 14" fill="none" xmlns="http://www.w3.org/2000/svg">
<path d="M6.9987 13.6667C3.3167 13.6667 0.332031 10.682 0.332031 7.00004C0.332031 3.31804 3.3167 0.333374 6.9987 0.333374C10.6807 0.333374 13.6654 3.31804 13.6654 7.00004C13.6654 10.682 10.6807 13.6667 6.9987 13.6667ZM6.9987 12.3334C8.41319 12.3334 9.76974 11.7715 10.7699 10.7713C11.7701 9.77108 12.332 8.41453 12.332 7.00004C12.332 5.58555 11.7701 4.229 10.7699 3.2288C9.76974 2.22861 8.41319 1.66671 6.9987 1.66671C5.58421 1.66671 4.22766 2.22861 3.22746 3.2288C2.22727 4.229 1.66536 5.58555 1.66536 7.00004C1.66536 8.41453 2.22727 9.77108 3.22746 10.7713C4.22766 11.7715 5.58421 12.3334 6.9987 12.3334ZM6.08003 4.61004L9.3327 6.77804C9.36928 6.80238 9.39927 6.83539 9.42002 6.87412C9.44077 6.91285 9.45162 6.9561 9.45162 7.00004C9.45162 7.04398 9.44077 7.08723 9.42002 7.12596C9.39927 7.16469 9.36928 7.1977 9.3327 7.22204L6.07936 9.39004C6.03925 9.41663 5.99269 9.43187 5.94461 9.43414C5.89654 9.43641 5.84875 9.42563 5.8063 9.40294C5.76386 9.38025 5.72835 9.34649 5.70354 9.30526C5.67872 9.26402 5.66553 9.21683 5.66536 9.16871V4.83137C5.66545 4.78314 5.67862 4.73584 5.70347 4.69449C5.72832 4.65315 5.76391 4.61933 5.80646 4.59661C5.84901 4.5739 5.89693 4.56316 5.9451 4.56552C5.99328 4.56789 6.03991 4.58327 6.08003 4.61004Z" fill="black"/>
</svg>
