<svg width="26" height="26" viewBox="0 0 26 26" fill="none" xmlns="http://www.w3.org/2000/svg">
<circle cx="13" cy="13" r="12.5" stroke="#A5A5A4"/>
<g clip-path="url(#clip0_407_1188)">
<path d="M17.6667 18.375H9V17.2917C9 16.5734 9.28534 15.8845 9.79325 15.3766C10.3012 14.8687 10.99 14.5833 11.7083 14.5833H14.9583C15.6766 14.5833 16.3655 14.8687 16.8734 15.3766C17.3813 15.8845 17.6667 16.5734 17.6667 17.2917V18.375ZM13.3333 13.5C12.9065 13.5 12.4839 13.4159 12.0896 13.2526C11.6953 13.0893 11.337 12.8499 11.0352 12.5481C10.7334 12.2463 10.4941 11.888 10.3307 11.4937C10.1674 11.0994 10.0833 10.6768 10.0833 10.25C10.0833 9.8232 10.1674 9.40059 10.3307 9.00628C10.4941 8.61197 10.7334 8.25369 11.0352 7.9519C11.337 7.65011 11.6953 7.41072 12.0896 7.24739C12.4839 7.08406 12.9065 7 13.3333 7C14.1953 7 15.0219 7.34241 15.6314 7.9519C16.2409 8.5614 16.5833 9.38805 16.5833 10.25C16.5833 11.112 16.2409 11.9386 15.6314 12.5481C15.0219 13.1576 14.1953 13.5 13.3333 13.5Z" fill="#00214B"/>
</g>
<defs>
<clipPath id="clip0_407_1188">
<rect width="13" height="13" fill="white" transform="translate(6 6)"/>
</clipPath>
</defs>
</svg>
