<svg width="30" height="30" viewBox="0 0 30 30" fill="none" xmlns="http://www.w3.org/2000/svg">
<path d="M14.9997 29.1668C7.17543 29.1668 0.833008 22.8244 0.833008 15.0002C0.833008 7.17591 7.17543 0.833496 14.9997 0.833496C22.8239 0.833496 29.1663 7.17591 29.1663 15.0002C29.1663 22.8244 22.8239 29.1668 14.9997 29.1668ZM14.9997 26.3335C18.0055 26.3335 20.8881 25.1395 23.0136 23.014C25.139 20.8886 26.333 18.006 26.333 15.0002C26.333 11.9944 25.139 9.1117 23.0136 6.98629C20.8881 4.86087 18.0055 3.66683 14.9997 3.66683C11.9939 3.66683 9.11121 4.86087 6.9858 6.98629C4.86039 9.1117 3.66634 11.9944 3.66634 15.0002C3.66634 18.006 4.86039 20.8886 6.9858 23.014C9.11121 25.1395 11.9939 26.3335 14.9997 26.3335ZM13.5873 20.6668L7.57634 14.6559L9.57951 12.6527L13.5873 16.6605L21.5999 8.64641L23.6045 10.6496L13.5873 20.6668Z" fill="white"/>
</svg>
