<svg width="153" height="36" viewBox="0 0 153 36" fill="none" xmlns="http://www.w3.org/2000/svg">
<path d="M4.87308 3.46828L24.3574 15.252C26.4238 16.5011 26.4238 19.4989 24.3574 20.748L4.87308 32.5317C2.73278 33.8259 0 32.2845 0 29.7845V6.2155C0 3.71554 2.73278 2.17414 4.87308 3.46828V3.46828Z" fill="#499ED7"/>
<path d="M4.87347 32.53L24.3577 20.7464C26.4242 19.4972 26.4242 16.4995 24.3577 15.2503L20.4127 12.8643L20.22 12.8579L3.54883 32.9523C4.01644 32.9126 4.46915 32.7683 4.87347 32.53V32.53Z" fill="#F04C4D"/>
<path d="M0 25.4011V29.7828C0 32.2844 2.73278 33.8242 4.87308 32.53L24.3574 20.7464C25.5857 20.0046 26.0657 18.6462 25.8329 17.4034L0 25.4011Z" fill="#2B8EC6"/>
<path d="M1.73089 3.37988C1.20827 3.6461 0.769775 4.0521 0.464191 4.55271C0.158607 5.05333 -0.00207632 5.62891 2.02575e-05 6.21542V10.3355L1.73089 3.37988Z" fill="#499ED7"/>
<path d="M24.358 15.2519L4.87375 3.4682C4.46838 3.22942 4.01464 3.08458 3.5459 3.04431L20.2187 23.2511L24.3596 20.7479C26.4245 19.4972 26.4245 16.5011 24.358 15.2519Z" fill="#92CA62"/>
<path d="M13.2067 21.3131L3.54883 32.9539C3.9968 32.9074 4.44637 32.7885 4.87347 32.5316L24.3577 20.7479C25.586 20.0061 26.0661 18.6478 25.8333 17.405L13.2067 21.3131V21.3131Z" fill="#E13340"/>
<path d="M24.3575 15.2519L20.4125 12.8659L20.2198 12.8595L15.9199 18.0425L20.2182 23.2511L24.3591 20.7479C26.4239 19.4972 26.4239 16.5011 24.3575 15.2519V15.2519Z" fill="#FCD770"/>
<path d="M17.5186 19.9773L20.2192 23.2495L24.3601 20.7464C25.5884 20.0046 26.0685 18.6462 25.8357 17.4034L17.5186 19.9773Z" fill="#FFCC5C"/>
<path d="M40.9693 12.1591C40.4792 12.1591 40.059 12.0916 39.7086 11.9567C39.3606 11.8241 39.0836 11.643 38.8777 11.4134C38.6717 11.1837 38.5379 10.9257 38.4764 10.6392L39.8755 10.451C39.9181 10.5599 39.9856 10.6617 40.0779 10.7564C40.1703 10.8511 40.2922 10.9268 40.4437 10.9837C40.5976 11.0429 40.7846 11.0724 41.0048 11.0724C41.3339 11.0724 41.6049 10.992 41.818 10.831C42.0334 10.6723 42.1412 10.406 42.1412 10.032V9.03409H42.0772C42.0109 9.18561 41.9115 9.32884 41.7789 9.46378C41.6464 9.59872 41.4759 9.70881 41.2676 9.79403C41.0592 9.87926 40.8107 9.92188 40.5218 9.92188C40.1123 9.92188 39.7394 9.82718 39.4032 9.63778C39.0694 9.44602 38.8031 9.15365 38.6042 8.76065C38.4077 8.36529 38.3095 7.86577 38.3095 7.26207C38.3095 6.64418 38.4101 6.12808 38.6113 5.71378C38.8126 5.29948 39.0801 4.98935 39.4139 4.78338C39.7501 4.57741 40.1182 4.47443 40.5183 4.47443C40.8237 4.47443 41.0794 4.52652 41.2853 4.63068C41.4913 4.73248 41.657 4.86032 41.7825 5.0142C41.9103 5.16572 42.0086 5.31487 42.0772 5.46165H42.1341V4.54545H43.6362V10.0533C43.6362 10.5173 43.5225 10.9055 43.2953 11.218C43.068 11.5305 42.7531 11.7649 42.3507 11.9212C41.9506 12.0798 41.4901 12.1591 40.9693 12.1591ZM41.0012 8.78551C41.2451 8.78551 41.4511 8.72514 41.6191 8.6044C41.7896 8.4813 41.9198 8.30611 42.0098 8.07884C42.1021 7.8492 42.1483 7.57457 42.1483 7.25497C42.1483 6.93537 42.1033 6.65838 42.0133 6.42401C41.9234 6.18726 41.7931 6.00379 41.6227 5.87358C41.4522 5.74337 41.2451 5.67827 41.0012 5.67827C40.7527 5.67827 40.5431 5.74574 40.3727 5.88068C40.2022 6.01326 40.0732 6.19792 39.9856 6.43466C39.898 6.6714 39.8542 6.94484 39.8542 7.25497C39.8542 7.56984 39.898 7.84209 39.9856 8.07173C40.0756 8.29901 40.2046 8.47538 40.3727 8.60085C40.5431 8.72396 40.7527 8.78551 41.0012 8.78551ZM47.3258 10.1065C46.7647 10.1065 46.2818 9.9929 45.877 9.76562C45.4745 9.53598 45.1644 9.21165 44.9466 8.79261C44.7288 8.37121 44.6199 7.87287 44.6199 7.29759C44.6199 6.73651 44.7288 6.24408 44.9466 5.82031C45.1644 5.39654 45.4709 5.06629 45.8663 4.82955C46.264 4.5928 46.7304 4.47443 47.2654 4.47443C47.6253 4.47443 47.9603 4.53243 48.2704 4.64844C48.5829 4.76207 48.8552 4.93371 49.0872 5.16335C49.3216 5.39299 49.5038 5.68182 49.6341 6.02983C49.7643 6.37547 49.8294 6.7803 49.8294 7.24432V7.6598H45.2235V6.7223H48.4054C48.4054 6.5045 48.358 6.31155 48.2633 6.14347C48.1686 5.97538 48.0372 5.84399 47.8691 5.74929C47.7034 5.65223 47.5105 5.60369 47.2903 5.60369C47.0607 5.60369 46.8571 5.65696 46.6795 5.76349C46.5043 5.86766 46.367 6.00852 46.2676 6.18608C46.1681 6.36127 46.1172 6.55658 46.1149 6.77202V7.66335C46.1149 7.93324 46.1646 8.16643 46.264 8.36293C46.3658 8.55942 46.5091 8.71094 46.6937 8.81747C46.8784 8.92401 47.0974 8.97727 47.3507 8.97727C47.5188 8.97727 47.6726 8.9536 47.8123 8.90625C47.952 8.8589 48.0716 8.78788 48.171 8.69318C48.2704 8.59848 48.3462 8.48248 48.3983 8.34517L49.7974 8.4375C49.7264 8.77367 49.5808 9.06723 49.3606 9.31818C49.1428 9.56676 48.8611 9.76089 48.5154 9.90057C48.1722 10.0379 47.7756 10.1065 47.3258 10.1065ZM53.7179 4.54545V5.68182H50.4331V4.54545H53.7179ZM51.1788 3.23864H52.6916V8.32386C52.6916 8.46354 52.7129 8.57244 52.7555 8.65057C52.7981 8.72633 52.8573 8.77959 52.9331 8.81037C53.0112 8.84115 53.1011 8.85653 53.2029 8.85653C53.274 8.85653 53.345 8.85062 53.416 8.83878C53.487 8.82457 53.5415 8.81392 53.5794 8.80682L53.8173 9.93253C53.7415 9.9562 53.635 9.98343 53.4977 10.0142C53.3604 10.0473 53.1935 10.0675 52.997 10.0746C52.6324 10.0888 52.3128 10.0402 52.0382 9.92898C51.7659 9.81771 51.554 9.64489 51.4025 9.41051C51.251 9.17614 51.1764 8.88021 51.1788 8.52273V3.23864ZM57.0178 10V4.54545H58.5305V10H57.0178ZM57.7777 3.84233C57.5528 3.84233 57.3598 3.76776 57.1989 3.61861C57.0402 3.46709 56.9609 3.28598 56.9609 3.07528C56.9609 2.86695 57.0402 2.68821 57.1989 2.53906C57.3598 2.38755 57.5528 2.31179 57.7777 2.31179C58.0026 2.31179 58.1944 2.38755 58.353 2.53906C58.514 2.68821 58.5945 2.86695 58.5945 3.07528C58.5945 3.28598 58.514 3.46709 58.353 3.61861C58.1944 3.76776 58.0026 3.84233 57.7777 3.84233ZM62.6436 4.54545V5.68182H59.3588V4.54545H62.6436ZM60.1046 3.23864H61.6174V8.32386C61.6174 8.46354 61.6387 8.57244 61.6813 8.65057C61.7239 8.72633 61.7831 8.77959 61.8588 8.81037C61.937 8.84115 62.0269 8.85653 62.1287 8.85653C62.1998 8.85653 62.2708 8.85062 62.3418 8.83878C62.4128 8.82457 62.4673 8.81392 62.5051 8.80682L62.7431 9.93253C62.6673 9.9562 62.5608 9.98343 62.4235 10.0142C62.2862 10.0473 62.1193 10.0675 61.9228 10.0746C61.5582 10.0888 61.2386 10.0402 60.964 9.92898C60.6917 9.81771 60.4798 9.64489 60.3283 9.41051C60.1768 9.17614 60.1022 8.88021 60.1046 8.52273V3.23864ZM68.408 10.1065C67.8564 10.1065 67.3794 9.98935 66.9769 9.75497C66.5768 9.51823 66.2679 9.18916 66.0501 8.76776C65.8323 8.34399 65.7234 7.85275 65.7234 7.29403C65.7234 6.73059 65.8323 6.23816 66.0501 5.81676C66.2679 5.39299 66.5768 5.06392 66.9769 4.82955C67.3794 4.5928 67.8564 4.47443 68.408 4.47443C68.9596 4.47443 69.4355 4.5928 69.8356 4.82955C70.238 5.06392 70.5482 5.39299 70.766 5.81676C70.9838 6.23816 71.0927 6.73059 71.0927 7.29403C71.0927 7.85275 70.9838 8.34399 70.766 8.76776C70.5482 9.18916 70.238 9.51823 69.8356 9.75497C69.4355 9.98935 68.9596 10.1065 68.408 10.1065ZM68.4151 8.93466C68.6661 8.93466 68.8756 8.86364 69.0437 8.72159C69.2118 8.57718 69.3384 8.38068 69.4237 8.1321C69.5112 7.88352 69.555 7.60062 69.555 7.28338C69.555 6.96615 69.5112 6.68324 69.4237 6.43466C69.3384 6.18608 69.2118 5.98958 69.0437 5.84517C68.8756 5.70076 68.6661 5.62855 68.4151 5.62855C68.1618 5.62855 67.9487 5.70076 67.7759 5.84517C67.6055 5.98958 67.4764 6.18608 67.3888 6.43466C67.3036 6.68324 67.261 6.96615 67.261 7.28338C67.261 7.60062 67.3036 7.88352 67.3888 8.1321C67.4764 8.38068 67.6055 8.57718 67.7759 8.72159C67.9487 8.86364 68.1618 8.93466 68.4151 8.93466ZM73.5891 6.84659V10H72.0763V4.54545H73.5181V5.50781H73.582C73.7028 5.19058 73.9052 4.93963 74.1893 4.75497C74.4734 4.56795 74.8178 4.47443 75.2227 4.47443C75.6014 4.47443 75.9317 4.55729 76.2134 4.72301C76.4951 4.88873 76.7141 5.12547 76.8704 5.43324C77.0266 5.73864 77.1048 6.10322 77.1048 6.52699V10H75.592V6.79688C75.5943 6.46307 75.5091 6.20265 75.3363 6.01562C75.1635 5.82623 74.9255 5.73153 74.6225 5.73153C74.4189 5.73153 74.239 5.77533 74.0827 5.86293C73.9289 5.95052 73.8081 6.07836 73.7205 6.24645C73.6353 6.41217 73.5915 6.61222 73.5891 6.84659Z" fill="white"/>
<path d="M49.0872 21.0994C48.9688 20.7159 48.8055 20.3726 48.5971 20.0696C48.3935 19.7618 48.1473 19.4991 47.8585 19.2812C47.5744 19.0634 47.2477 18.9001 46.8784 18.7912C46.5091 18.6776 46.1066 18.6207 45.671 18.6207C44.8897 18.6207 44.1937 18.8172 43.5829 19.2102C42.9721 19.6032 42.4915 20.1809 42.1412 20.9432C41.7955 21.7008 41.6227 22.6241 41.6227 23.7131C41.6227 24.8116 41.7955 25.742 42.1412 26.5043C42.4868 27.2666 42.9674 27.8466 43.5829 28.2443C44.1984 28.6373 44.9134 28.8338 45.7278 28.8338C46.4664 28.8338 47.1056 28.6918 47.6454 28.4077C48.1899 28.1236 48.609 27.7211 48.9025 27.2003C49.1961 26.6747 49.3429 26.0592 49.3429 25.3537L49.9395 25.446H45.9906V23.3864H51.8926V25.1335C51.8926 26.3788 51.6274 27.456 51.0971 28.3651C50.5668 29.2741 49.8377 29.9749 48.9096 30.4673C47.9816 30.955 46.9163 31.1989 45.7136 31.1989C44.3736 31.1989 43.197 30.8982 42.1838 30.2969C41.1752 29.6908 40.3869 28.8314 39.8187 27.7188C39.2553 26.6013 38.9735 25.2756 38.9735 23.7415C38.9735 22.5672 39.1393 21.5185 39.4707 20.5952C39.8069 19.6719 40.2756 18.8883 40.877 18.2443C41.4783 17.5956 42.1838 17.1032 42.9934 16.767C43.8031 16.4261 44.6838 16.2557 45.6355 16.2557C46.4404 16.2557 47.1909 16.3741 47.8869 16.6108C48.5829 16.8428 49.2008 17.1742 49.7406 17.6051C50.2851 18.036 50.7325 18.5473 51.0829 19.1392C51.4333 19.7311 51.6629 20.3845 51.7718 21.0994H49.0872ZM59.0854 31.2131C58.0201 31.2131 57.0968 30.9787 56.3155 30.5099C55.5343 30.0412 54.9282 29.3854 54.4973 28.5426C54.0712 27.6998 53.8581 26.715 53.8581 25.5881C53.8581 24.4612 54.0712 23.474 54.4973 22.6264C54.9282 21.7789 55.5343 21.1207 56.3155 20.652C57.0968 20.1832 58.0201 19.9489 59.0854 19.9489C60.1507 19.9489 61.074 20.1832 61.8553 20.652C62.6365 21.1207 63.2402 21.7789 63.6664 22.6264C64.0972 23.474 64.3127 24.4612 64.3127 25.5881C64.3127 26.715 64.0972 27.6998 63.6664 28.5426C63.2402 29.3854 62.6365 30.0412 61.8553 30.5099C61.074 30.9787 60.1507 31.2131 59.0854 31.2131ZM59.0996 29.1534C59.6773 29.1534 60.1602 28.9948 60.5485 28.6776C60.9367 28.3556 61.2256 27.9247 61.415 27.3849C61.6091 26.8452 61.7061 26.2438 61.7061 25.581C61.7061 24.9134 61.6091 24.3097 61.415 23.7699C61.2256 23.2254 60.9367 22.7921 60.5485 22.4702C60.1602 22.1482 59.6773 21.9872 59.0996 21.9872C58.5078 21.9872 58.0153 22.1482 57.6223 22.4702C57.2341 22.7921 56.9429 23.2254 56.7488 23.7699C56.5594 24.3097 56.4647 24.9134 56.4647 25.581C56.4647 26.2438 56.5594 26.8452 56.7488 27.3849C56.9429 27.9247 57.2341 28.3556 57.6223 28.6776C58.0153 28.9948 58.5078 29.1534 59.0996 29.1534ZM71.2534 31.2131C70.188 31.2131 69.2647 30.9787 68.4835 30.5099C67.7022 30.0412 67.0962 29.3854 66.6653 28.5426C66.2392 27.6998 66.0261 26.715 66.0261 25.5881C66.0261 24.4612 66.2392 23.474 66.6653 22.6264C67.0962 21.7789 67.7022 21.1207 68.4835 20.652C69.2647 20.1832 70.188 19.9489 71.2534 19.9489C72.3187 19.9489 73.242 20.1832 74.0233 20.652C74.8045 21.1207 75.4082 21.7789 75.8343 22.6264C76.2652 23.474 76.4806 24.4612 76.4806 25.5881C76.4806 26.715 76.2652 27.6998 75.8343 28.5426C75.4082 29.3854 74.8045 30.0412 74.0233 30.5099C73.242 30.9787 72.3187 31.2131 71.2534 31.2131ZM71.2676 29.1534C71.8452 29.1534 72.3282 28.9948 72.7164 28.6776C73.1047 28.3556 73.3935 27.9247 73.5829 27.3849C73.777 26.8452 73.8741 26.2438 73.8741 25.581C73.8741 24.9134 73.777 24.3097 73.5829 23.7699C73.3935 23.2254 73.1047 22.7921 72.7164 22.4702C72.3282 22.1482 71.8452 21.9872 71.2676 21.9872C70.6757 21.9872 70.1833 22.1482 69.7903 22.4702C69.402 22.7921 69.1109 23.2254 68.9167 23.7699C68.7273 24.3097 68.6326 24.9134 68.6326 25.581C68.6326 26.2438 68.7273 26.8452 68.9167 27.3849C69.1109 27.9247 69.402 28.3556 69.7903 28.6776C70.1833 28.9948 70.6757 29.1534 71.2676 29.1534ZM83.4071 35.3182C82.4838 35.3182 81.6908 35.1927 81.0279 34.9418C80.365 34.6955 79.8323 34.3641 79.4299 33.9474C79.0274 33.5308 78.748 33.0691 78.5918 32.5625L80.9071 32.0014C81.0113 32.2145 81.1628 32.4252 81.3617 32.6335C81.5605 32.8466 81.8281 33.0218 82.1642 33.1591C82.5051 33.3011 82.9337 33.3722 83.4498 33.3722C84.1789 33.3722 84.7826 33.1946 85.2608 32.8395C85.7391 32.4891 85.9782 31.9115 85.9782 31.1065V29.0398H85.8503C85.7177 29.3049 85.5236 29.5772 85.2679 29.8565C85.017 30.1359 84.6832 30.3703 84.2665 30.5597C83.8546 30.7491 83.3361 30.8438 82.7111 30.8438C81.873 30.8438 81.1131 30.6473 80.4313 30.2543C79.7542 29.8565 79.2144 29.2647 78.812 28.4787C78.4142 27.688 78.2154 26.6984 78.2154 25.5099C78.2154 24.312 78.4142 23.3011 78.812 22.4773C79.2144 21.6487 79.7566 21.0213 80.4384 20.5952C81.1202 20.1643 81.8801 19.9489 82.7182 19.9489C83.3574 19.9489 83.883 20.0578 84.2949 20.2756C84.7116 20.4886 85.043 20.7467 85.2892 21.0497C85.5355 21.348 85.7225 21.6297 85.8503 21.8949H85.9924V20.0909H88.5279V31.1776C88.5279 32.1103 88.3053 32.8821 87.8603 33.4929C87.4152 34.1037 86.8068 34.5606 86.035 34.8636C85.2632 35.1667 84.3873 35.3182 83.4071 35.3182ZM83.4284 28.8267C83.973 28.8267 84.437 28.6941 84.8205 28.429C85.204 28.1638 85.4952 27.7827 85.6941 27.2855C85.8929 26.7884 85.9924 26.1918 85.9924 25.4957C85.9924 24.8092 85.8929 24.2079 85.6941 23.6918C85.4999 23.1757 85.2111 22.7756 84.8276 22.4915C84.4488 22.2027 83.9824 22.0582 83.4284 22.0582C82.8555 22.0582 82.3773 22.2074 81.9938 22.5057C81.6103 22.804 81.3214 23.2135 81.1273 23.7344C80.9332 24.2505 80.8361 24.8376 80.8361 25.4957C80.8361 26.1634 80.9332 26.7481 81.1273 27.25C81.3262 27.7472 81.6174 28.1354 82.0009 28.4148C82.3891 28.6894 82.865 28.8267 83.4284 28.8267ZM93.7338 16.4545V31H91.1628V16.4545H93.7338ZM101.207 31.2131C100.113 31.2131 99.1689 30.9858 98.3734 30.5312C97.5827 30.072 96.9743 29.4233 96.5481 28.5852C96.122 27.7424 95.9089 26.7505 95.9089 25.6094C95.9089 24.4872 96.122 23.5024 96.5481 22.6548C96.979 21.8026 97.5803 21.1397 98.3521 20.6662C99.1239 20.188 100.031 19.9489 101.072 19.9489C101.745 19.9489 102.379 20.0578 102.976 20.2756C103.577 20.4886 104.107 20.8201 104.567 21.2699C105.031 21.7197 105.395 22.2926 105.66 22.9886C105.925 23.6799 106.058 24.5038 106.058 25.4602V26.2486H97.1163V24.5156H103.594C103.589 24.0232 103.482 23.5852 103.274 23.2017C103.066 22.8134 102.774 22.508 102.4 22.2855C102.031 22.063 101.6 21.9517 101.108 21.9517C100.582 21.9517 100.121 22.0795 99.7228 22.3352C99.3251 22.5862 99.015 22.9176 98.7924 23.3295C98.5746 23.7367 98.4634 24.1842 98.4586 24.6719V26.1847C98.4586 26.8191 98.5746 27.3636 98.8066 27.8182C99.0386 28.268 99.363 28.6136 99.7797 28.8551C100.196 29.0919 100.684 29.2102 101.243 29.2102C101.617 29.2102 101.955 29.1581 102.258 29.054C102.561 28.9451 102.824 28.7865 103.047 28.5781C103.269 28.3698 103.437 28.1117 103.551 27.804L105.952 28.0739C105.8 28.7083 105.511 29.2623 105.085 29.7358C104.664 30.2045 104.124 30.5691 103.466 30.8295C102.808 31.0852 102.055 31.2131 101.207 31.2131ZM113.308 31V16.4545H118.762C119.88 16.4545 120.817 16.6629 121.575 17.0795C122.337 17.4962 122.912 18.0691 123.301 18.7983C123.694 19.5227 123.89 20.3466 123.89 21.2699C123.89 22.2027 123.694 23.0312 123.301 23.7557C122.908 24.4801 122.328 25.0507 121.561 25.4673C120.794 25.8793 119.849 26.0852 118.727 26.0852H115.112V23.919H118.372C119.025 23.919 119.56 23.8054 119.977 23.5781C120.393 23.3509 120.701 23.0384 120.9 22.6406C121.104 22.2429 121.205 21.786 121.205 21.2699C121.205 20.7538 121.104 20.2992 120.9 19.9062C120.701 19.5133 120.391 19.2079 119.97 18.9901C119.553 18.7675 119.016 18.6562 118.357 18.6562H115.943V31H113.308ZM128.636 16.4545V31H126.065V16.4545H128.636ZM134.419 31.2202C133.728 31.2202 133.105 31.0971 132.551 30.8509C132.002 30.5999 131.566 30.2306 131.244 29.7429C130.927 29.2552 130.769 28.6539 130.769 27.9389C130.769 27.3234 130.882 26.8144 131.11 26.4119C131.337 26.0095 131.647 25.6875 132.04 25.446C132.433 25.2045 132.876 25.0223 133.368 24.8991C133.865 24.7713 134.379 24.679 134.909 24.6222C135.548 24.5559 136.067 24.4967 136.465 24.4446C136.862 24.3878 137.151 24.3026 137.331 24.1889C137.516 24.0705 137.608 23.8883 137.608 23.642V23.5994C137.608 23.0644 137.45 22.6501 137.132 22.3565C136.815 22.063 136.358 21.9162 135.762 21.9162C135.132 21.9162 134.632 22.0535 134.263 22.3281C133.898 22.6027 133.652 22.9271 133.524 23.3011L131.124 22.9602C131.313 22.2973 131.626 21.7434 132.061 21.2983C132.497 20.8485 133.03 20.5123 133.659 20.2898C134.289 20.0625 134.985 19.9489 135.747 19.9489C136.273 19.9489 136.796 20.0104 137.317 20.1335C137.838 20.2566 138.314 20.4602 138.744 20.7443C139.175 21.0237 139.521 21.4048 139.781 21.8878C140.047 22.3707 140.179 22.9744 140.179 23.6989V31H137.708V29.5014H137.622C137.466 29.8045 137.246 30.0885 136.962 30.3537C136.682 30.6141 136.33 30.8248 135.904 30.9858C135.482 31.142 134.987 31.2202 134.419 31.2202ZM135.087 29.331C135.603 29.331 136.05 29.2292 136.429 29.0256C136.808 28.8172 137.099 28.5426 137.303 28.2017C137.511 27.8608 137.615 27.4891 137.615 27.0866V25.8011C137.535 25.8674 137.397 25.929 137.203 25.9858C137.014 26.0426 136.801 26.0923 136.564 26.1349C136.327 26.1776 136.093 26.2154 135.861 26.2486C135.629 26.2817 135.428 26.3101 135.257 26.3338C134.874 26.3859 134.53 26.4711 134.227 26.5895C133.924 26.7079 133.685 26.8736 133.51 27.0866C133.335 27.295 133.247 27.5649 133.247 27.8963C133.247 28.3698 133.42 28.7273 133.766 28.9688C134.111 29.2102 134.552 29.331 135.087 29.331ZM143.972 35.0909C143.621 35.0909 143.297 35.0625 142.999 35.0057C142.705 34.9536 142.471 34.892 142.296 34.821L142.892 32.8182C143.266 32.9271 143.6 32.9792 143.894 32.9744C144.187 32.9697 144.445 32.8774 144.668 32.6974C144.895 32.5223 145.087 32.2287 145.243 31.8168L145.463 31.2273L141.507 20.0909H144.235L146.749 28.3295H146.862L149.384 20.0909H152.118L147.75 32.321C147.547 32.8987 147.277 33.3935 146.941 33.8054C146.604 34.2221 146.192 34.5393 145.705 34.7571C145.222 34.9796 144.644 35.0909 143.972 35.0909Z" fill="white"/>
</svg>
