<svg width="693" height="778" viewBox="0 0 693 778" fill="none" xmlns="http://www.w3.org/2000/svg">
<circle cx="512.5" cy="664.5" r="113.5" fill="#0CD6D4"/>
<circle cx="513" cy="665" r="20.5" stroke="white" stroke-opacity="0.6"/>
<circle cx="513" cy="665" r="24.5" stroke="white" stroke-opacity="0.6"/>
<circle cx="513" cy="665" r="28.5" stroke="white" stroke-opacity="0.6"/>
<circle cx="513" cy="665" r="32.5" stroke="white" stroke-opacity="0.6"/>
<circle cx="513" cy="665" r="36.5" stroke="white" stroke-opacity="0.6"/>
<circle cx="513" cy="665" r="40.5" stroke="white" stroke-opacity="0.6"/>
<circle cx="513" cy="665" r="44.5" stroke="white" stroke-opacity="0.6"/>
<circle cx="513" cy="665" r="48.5" stroke="white" stroke-opacity="0.6"/>
<circle cx="513" cy="665" r="52.5" stroke="white" stroke-opacity="0.6"/>
<circle cx="513" cy="665" r="56.5" stroke="white" stroke-opacity="0.6"/>
<circle cx="513" cy="665" r="60.5" stroke="white" stroke-opacity="0.6"/>
<circle cx="513" cy="665" r="64.5" stroke="white" stroke-opacity="0.6"/>
<circle cx="513" cy="665" r="68.5" stroke="white" stroke-opacity="0.6"/>
<circle cx="513" cy="665" r="72.5" stroke="white" stroke-opacity="0.6"/>
<circle cx="513" cy="665" r="76.5" stroke="white" stroke-opacity="0.6"/>
<circle cx="513" cy="665" r="80.5" stroke="white" stroke-opacity="0.6"/>
<circle cx="513" cy="665" r="84.5" stroke="white" stroke-opacity="0.6"/>
<circle cx="513" cy="665" r="88.5" stroke="white" stroke-opacity="0.6"/>
<circle cx="513" cy="665" r="92.5" stroke="white" stroke-opacity="0.6"/>
<circle cx="513" cy="665" r="96.5" stroke="white" stroke-opacity="0.6"/>
<circle cx="513" cy="665" r="100.5" stroke="white" stroke-opacity="0.6"/>
<circle cx="513" cy="665" r="104.5" stroke="white" stroke-opacity="0.6"/>
<circle cx="513" cy="665" r="108.5" stroke="white" stroke-opacity="0.6"/>
<circle cx="583.5" cy="143.5" r="143.5" fill="#0CD6D4"/>
<circle cx="584.132" cy="144.132" r="26.0507" stroke="white" stroke-opacity="0.6"/>
<circle cx="584.131" cy="144.132" r="31.1079" stroke="white" stroke-opacity="0.6"/>
<circle cx="584.132" cy="144.132" r="36.1652" stroke="white" stroke-opacity="0.6"/>
<circle cx="584.132" cy="144.132" r="41.2225" stroke="white" stroke-opacity="0.6"/>
<circle cx="584.131" cy="144.132" r="46.2797" stroke="white" stroke-opacity="0.6"/>
<circle cx="584.132" cy="144.132" r="51.337" stroke="white" stroke-opacity="0.6"/>
<circle cx="584.132" cy="144.132" r="56.3943" stroke="white" stroke-opacity="0.6"/>
<circle cx="584.131" cy="144.132" r="61.4515" stroke="white" stroke-opacity="0.6"/>
<circle cx="584.132" cy="144.132" r="66.5088" stroke="white" stroke-opacity="0.6"/>
<circle cx="584.132" cy="144.132" r="71.5661" stroke="white" stroke-opacity="0.6"/>
<circle cx="584.132" cy="144.132" r="76.6233" stroke="white" stroke-opacity="0.6"/>
<circle cx="584.132" cy="144.132" r="81.6806" stroke="white" stroke-opacity="0.6"/>
<circle cx="584.131" cy="144.132" r="86.7379" stroke="white" stroke-opacity="0.6"/>
<circle cx="584.132" cy="144.132" r="91.7952" stroke="white" stroke-opacity="0.6"/>
<circle cx="584.132" cy="144.132" r="96.8524" stroke="white" stroke-opacity="0.6"/>
<circle cx="584.131" cy="144.132" r="101.91" stroke="white" stroke-opacity="0.6"/>
<circle cx="584.132" cy="144.132" r="106.967" stroke="white" stroke-opacity="0.6"/>
<circle cx="584.132" cy="144.132" r="112.024" stroke="white" stroke-opacity="0.6"/>
<circle cx="584.131" cy="144.132" r="117.081" stroke="white" stroke-opacity="0.6"/>
<circle cx="584.132" cy="144.132" r="122.139" stroke="white" stroke-opacity="0.6"/>
<circle cx="584.132" cy="144.132" r="127.196" stroke="white" stroke-opacity="0.6"/>
<circle cx="584.131" cy="144.132" r="132.253" stroke="white" stroke-opacity="0.6"/>
<circle cx="584.132" cy="144.132" r="137.311" stroke="white" stroke-opacity="0.6"/>
<circle cx="572.5" cy="424.5" r="59.5" fill="#9BEDF0"/>
<rect x="573" y="342" width="83" height="166" fill="#6CE6E6" fill-opacity="0.6"/>
<circle cx="652" cy="557" r="5" stroke="#70E6E8" stroke-width="2"/>
<circle cx="652" cy="587" r="5" stroke="#70E6E8" stroke-width="2"/>
<circle cx="652" cy="617" r="5" stroke="#70E6E8" stroke-width="2"/>
<circle cx="652" cy="647" r="5" stroke="#70E6E8" stroke-width="2"/>
<circle cx="613" cy="557" r="5" stroke="#70E6E8" stroke-width="2"/>
<circle cx="613" cy="587" r="5" stroke="#70E6E8" stroke-width="2"/>
<circle cx="613" cy="617" r="5" stroke="#70E6E8" stroke-width="2"/>
<circle cx="613" cy="647" r="5" stroke="#70E6E8" stroke-width="2"/>
<circle cx="574" cy="557" r="5" stroke="#70E6E8" stroke-width="2"/>
<circle cx="574" cy="587" r="5" stroke="#70E6E8" stroke-width="2"/>
<circle cx="574" cy="617" r="5" stroke="#70E6E8" stroke-width="2"/>
<circle cx="574" cy="647" r="5" stroke="#70E6E8" stroke-width="2"/>
<circle cx="535" cy="557" r="5" stroke="#70E6E8" stroke-width="2"/>
<circle cx="535" cy="587" r="5" stroke="#70E6E8" stroke-width="2"/>
<circle cx="535" cy="617" r="5" stroke="#70E6E8" stroke-width="2"/>
<circle cx="535" cy="647" r="5" stroke="#70E6E8" stroke-width="2"/>
<circle cx="424" cy="312" r="6" fill="#41DEDF"/>
<circle cx="424" cy="263" r="6" fill="#41DEDF"/>
<circle cx="424" cy="214" r="6" fill="#41DEDF"/>
<circle cx="424" cy="165" r="6" fill="#41DEDF"/>
<circle cx="424" cy="116" r="6" fill="#41DEDF"/>
<rect x="371" y="63" width="107" height="316" stroke="#41DEDF" stroke-width="2"/>
<rect x="425.066" y="396" width="150" height="150" transform="rotate(45 425.066 396)" fill="#57E1E4"/>
<rect x="293.012" y="124" width="72.1409" height="72.1409" transform="rotate(45 293.012 124)" fill="#57E1E4"/>
<rect x="293.012" y="175" width="72.1409" height="72.1409" transform="rotate(45 293.012 175)" fill="#57E1E4"/>
<rect x="170" y="262" width="72.1409" height="72.1409" fill="#57E1E4"/>
<line x1="39.8284" y1="480" x2="95" y2="535.172" stroke="#5BD5ED" stroke-width="4" stroke-linecap="round"/>
<line x1="52.8284" y1="467" x2="108" y2="522.172" stroke="#5BD5ED" stroke-width="4" stroke-linecap="round"/>
<line x1="65.8284" y1="454" x2="121" y2="509.172" stroke="#5BD5ED" stroke-width="4" stroke-linecap="round"/>
<line x1="78.8284" y1="441" x2="134" y2="496.172" stroke="#5BD5ED" stroke-width="4" stroke-linecap="round"/>
<line x1="91.8284" y1="428" x2="147" y2="483.172" stroke="#5BD5ED" stroke-width="4" stroke-linecap="round"/>
<circle cx="37" cy="567" r="35" stroke="#61D7ED" stroke-width="4"/>
<circle cx="175" cy="171" r="12" stroke="#61D7ED" stroke-width="4"/>
<g clip-path="url(#clip0_27_286)">
<path d="M86.333 662.333V652.333H89.6663V662.333H99.6663V665.667H89.6663V675.667H86.333V665.667H76.333V662.333H86.333Z" fill="#51D8E7"/>
</g>
<g clip-path="url(#clip1_27_286)">
<path d="M126.333 662.333V652.333H129.666V662.333H139.666V665.667H129.666V675.667H126.333V665.667H116.333V662.333H126.333Z" fill="#51D8E7"/>
</g>
<g clip-path="url(#clip2_27_286)">
<path d="M126.333 340.333V330.333H129.666V340.333H139.666V343.667H129.666V353.667H126.333V343.667H116.333V340.333H126.333Z" fill="#51D8E7"/>
</g>
<defs>
<clipPath id="clip0_27_286">
<rect width="40" height="40" fill="white" transform="translate(68 644)"/>
</clipPath>
<clipPath id="clip1_27_286">
<rect width="40" height="40" fill="white" transform="translate(108 644)"/>
</clipPath>
<clipPath id="clip2_27_286">
<rect width="40" height="40" fill="white" transform="translate(108 322)"/>
</clipPath>
</defs>
</svg>
